<?xml version="1.0" encoding="utf-8"?>
<!-- Generator: Adobe Illustrator 24.0.0, SVG Export Plug-In . SVG Version: 6.00 Build 0)  -->
<svg version="1.1" id="Calque_1" xmlns="http://www.w3.org/2000/svg" xmlns:xlink="http://www.w3.org/1999/xlink" x="0px" y="0px"
	 viewBox="0 0 16 16" style="enable-background:new 0 0 16 16;" xml:space="preserve">
<style type="text/css">
	.st0{fill:#E8551A;}
	.st1{fill:#FFFFFF;}
</style>
<g>
	<path class="st0" d="M2.81,7.86c0,0.27-0.09,0.46-0.28,0.55l0.18,0.37C2.73,8.83,2.7,8.86,2.65,8.86L2.18,8.86
		c-0.04,0-0.06-0.02-0.08-0.06L1.95,8.49l-0.28,0C1.26,8.5,1.03,8.29,1.03,7.88L1,5.69c0-0.4,0.22-0.62,0.63-0.62l0.5-0.01
		c0.42-0.01,0.64,0.21,0.65,0.61L2.81,7.86z M1.63,7.76c0,0.12,0.06,0.17,0.18,0.17l0.23,0c0.12,0,0.18-0.06,0.18-0.17L2.2,5.8
		c0-0.11-0.06-0.17-0.18-0.17l-0.23,0c-0.12,0-0.18,0.06-0.18,0.17L1.63,7.76z"/>
	<path class="st0" d="M5.07,6.66c0,0.28-0.09,0.47-0.28,0.56l0.28,1.1c0.01,0.05-0.01,0.08-0.05,0.08l-0.41,0
		c-0.04,0-0.06-0.02-0.07-0.06L4.27,7.28l-0.27,0l0.01,1.07c0,0.04-0.02,0.07-0.06,0.07l-0.41,0c-0.04,0-0.06-0.02-0.06-0.07
		L3.43,5.11c0-0.04,0.02-0.07,0.06-0.07l0.99-0.01c0.37,0,0.57,0.2,0.57,0.6L5.07,6.66z M4.38,6.72c0.1,0,0.16-0.06,0.16-0.17
		L4.52,5.76c0-0.11-0.06-0.17-0.16-0.17l-0.39,0l0.01,1.13L4.38,6.72z"/>
	<path class="st0" d="M6.61,5.12c0-0.05,0.03-0.08,0.07-0.08l1.07-0.01C8.17,5.02,8.39,5.26,8.4,5.71l0.01,0.94
		c0.01,0.44-0.21,0.69-0.63,0.7L7.22,7.35l0.01,0.96c0,0.05-0.02,0.08-0.07,0.08l-0.44,0c-0.04,0-0.07-0.03-0.07-0.08L6.61,5.12z
		 M7.65,6.73c0.12,0,0.18-0.07,0.18-0.19l-0.01-0.7c0-0.12-0.06-0.19-0.18-0.19L7.2,5.66l0.01,1.08L7.65,6.73z"/>
	<path class="st0" d="M10.64,6.64c0,0.28-0.08,0.47-0.24,0.59l0.24,1.03c0.01,0.06-0.01,0.09-0.06,0.09l-0.44,0.01
		c-0.04,0-0.07-0.02-0.08-0.07L9.84,7.34l-0.4,0l0.01,0.93c0,0.05-0.03,0.08-0.07,0.08L8.95,8.36c-0.04,0-0.07-0.03-0.07-0.08
		L8.84,5.09c0-0.05,0.03-0.08,0.07-0.08L9.98,5C10.4,5,10.62,5.23,10.63,5.68L10.64,6.64z M9.88,6.72c0.12,0,0.18-0.07,0.18-0.19
		l-0.01-0.72c0-0.12-0.06-0.19-0.18-0.19L9.42,5.62l0.01,1.1L9.88,6.72z"/>
	<path class="st0" d="M11.11,5.46c0,0.01,0,0.02,0,0.03c0,0.07,0,0.13,0,0.2c0,0.03-0.01,0.04-0.03,0.05
		c-0.03,0.01-0.05-0.01-0.06-0.04c0-0.01,0-0.01,0-0.02c0-0.09,0-0.17,0-0.26c0-0.04,0.01-0.06,0.05-0.06c0.09,0,0.19,0,0.28,0
		c0.01,0,0.01,0,0.02,0c0.02,0.01,0.03,0.02,0.03,0.05c0,0.02-0.02,0.04-0.04,0.04c-0.01,0-0.01,0-0.02,0c-0.07,0-0.15,0-0.22,0
		C11.13,5.46,11.12,5.46,11.11,5.46z"/>
	<path class="st0" d="M11.15,8.24c0.01,0,0.02,0,0.02,0c0.07,0,0.15,0,0.22,0c0.01,0,0.01,0,0.02,0c0.02,0,0.04,0.03,0.04,0.05
		c0,0.02-0.02,0.04-0.04,0.04c-0.05,0-0.09,0-0.14,0c-0.05,0-0.11,0-0.16,0c-0.03,0-0.05-0.02-0.05-0.05c0-0.09,0-0.18,0-0.27
		c0-0.03,0.02-0.05,0.04-0.05c0.02,0,0.04,0.02,0.04,0.04c0,0.01,0,0.01,0,0.02c0,0.06,0,0.13,0,0.19
		C11.15,8.22,11.15,8.23,11.15,8.24z"/>
	<path class="st0" d="M13.88,8.21c0-0.02,0-0.03,0-0.05c0-0.06,0-0.12,0-0.18c0-0.03,0.02-0.05,0.05-0.05
		c0.02,0,0.04,0.02,0.04,0.04c0,0,0,0.01,0,0.01c0,0.09,0,0.18,0,0.27c0,0,0,0,0,0.01c0,0.03-0.02,0.05-0.04,0.05
		c-0.1,0-0.2,0-0.3,0c-0.02,0-0.04-0.02-0.04-0.04c0-0.03,0.02-0.05,0.04-0.05c0.01,0,0.01,0,0.02,0c0.07,0,0.15,0,0.22,0
		C13.86,8.21,13.87,8.21,13.88,8.21z"/>
	<g>
		<path class="st0" d="M13.76,5.45l0-0.05c0,0,0.18-0.01,0.19,0.18l-0.05,0C13.9,5.58,13.91,5.46,13.76,5.45z"/>
		<path class="st0" d="M13.77,5.32l0-0.1c0,0,0.17-0.01,0.29,0.16c0,0,0.07,0.1,0.06,0.2l-0.1,0C14.02,5.57,14.02,5.34,13.77,5.32z"
			/>
		<path class="st0" d="M13.76,5.13l0-0.09c0,0,0.21-0.02,0.4,0.19c0,0,0.14,0.14,0.13,0.35l-0.1,0c0,0,0.02-0.2-0.19-0.36
			C14.01,5.21,13.93,5.15,13.76,5.13z"/>
	</g>
	<path d="M2.95,9.24c-0.09-0.11-0.62-0.17-0.5-0.01c1.1,1.38,2.82,2.05,4.55,2.12c1.94,0.09,3.79-0.77,5.29-1.94
		c0.01,0.16,0.01,0.32,0.02,0.48c0.01,0.27,0.52,0.04,0.51-0.21c-0.01-0.22-0.02-0.43-0.03-0.65c-0.01-0.16-0.01-0.32-0.13-0.44
		c-0.13-0.13-0.31-0.12-0.48-0.11c-0.25,0.01-0.5,0.04-0.74,0.07c-0.27,0.03-0.42,0.48-0.06,0.44c0.12-0.01,0.56-0.11,0.77-0.06
		c-1.32,1.12-2.86,1.95-4.6,2.16C5.82,11.29,4.04,10.61,2.95,9.24z"/>
	<g>
		<path d="M11.29,5.98c0-0.09,0-0.18,0-0.27c0-0.01,0-0.02,0-0.02c0-0.02,0.02-0.04,0.04-0.04c0.01,0,0.01,0,0.02,0
			c0.17,0,0.34,0,0.51-0.01c0.01,0,0.01,0,0.02,0c0.02,0,0.04,0.02,0.04,0.04c0,0.01,0,0.01,0,0.02c0,0.18,0,0.36,0.01,0.54
			c0,0.01,0,0.02,0,0.02c0,0.02-0.02,0.04-0.04,0.04c-0.01,0-0.02,0-0.03,0c-0.17,0-0.34,0-0.51,0.01c-0.01,0-0.02,0-0.03,0
			c-0.02,0-0.03-0.02-0.04-0.04c0-0.01,0-0.01,0-0.02C11.29,6.16,11.29,6.07,11.29,5.98z M11.38,5.74c0,0.16,0,0.32,0.01,0.48
			c0.15,0,0.3,0,0.44-0.01c0-0.16,0-0.32-0.01-0.48C11.67,5.74,11.53,5.74,11.38,5.74z"/>
		<path d="M13.39,5.62c0.08,0,0.17,0,0.25,0c0.01,0,0.01,0,0.02,0c0.03,0,0.04,0.02,0.04,0.05c0,0.01,0,0.01,0,0.02
			c0,0.18,0,0.36,0.01,0.55c0,0.01,0,0.02,0,0.02c0,0.02-0.01,0.03-0.03,0.04c-0.01,0-0.02,0-0.03,0c-0.17,0-0.34,0-0.51,0.01
			c-0.01,0-0.02,0-0.02,0c-0.02,0-0.03-0.02-0.04-0.04c0-0.01,0-0.02,0-0.02c0-0.18,0-0.36-0.01-0.54c0,0,0-0.01,0-0.01
			c0-0.03,0.02-0.05,0.05-0.05C13.22,5.62,13.3,5.62,13.39,5.62C13.39,5.62,13.39,5.62,13.39,5.62z M13.17,5.72
			c0,0.16,0,0.32,0.01,0.48c0.15,0,0.3,0,0.44-0.01c0-0.16,0-0.32-0.01-0.48C13.47,5.72,13.32,5.72,13.17,5.72z"/>
		<path d="M13.73,7.73c0,0.09,0,0.18,0,0.27c0,0.01,0,0.01,0,0.02c0,0.02-0.02,0.04-0.04,0.05c-0.01,0-0.01,0-0.02,0
			c-0.17,0-0.34,0-0.51,0.01c-0.01,0-0.01,0-0.02,0c-0.02,0-0.04-0.02-0.04-0.05c0-0.01,0-0.01,0-0.02c0-0.18,0-0.36-0.01-0.55
			c0-0.01,0-0.01,0-0.02c0-0.03,0.02-0.04,0.04-0.05c0,0,0.01,0,0.01,0c0.17,0,0.34,0,0.51-0.01c0.01,0,0.01,0,0.02,0
			c0.02,0,0.04,0.02,0.04,0.04c0,0.01,0,0.02,0,0.02C13.73,7.55,13.73,7.64,13.73,7.73z M13.64,7.5c-0.03,0-0.43,0-0.44,0.01
			c0,0.16,0,0.32,0.01,0.48c0.03,0,0.43,0,0.44-0.01C13.64,7.81,13.64,7.66,13.64,7.5z"/>
		<path d="M11.31,7.76c0-0.09,0-0.18,0-0.27c0-0.01,0-0.02,0-0.02c0-0.02,0.02-0.04,0.04-0.04c0.01,0,0.01,0,0.02,0
			c0.17,0,0.34,0,0.51-0.01c0,0,0.01,0,0.01,0c0.02,0,0.04,0.02,0.04,0.04c0,0.01,0,0.01,0,0.02c0,0.18,0,0.36,0.01,0.55
			c0,0.01,0,0.01,0,0.02c0,0.03-0.02,0.04-0.04,0.05c-0.01,0-0.01,0-0.02,0c-0.17,0-0.34,0-0.51,0.01c0,0-0.01,0-0.01,0
			c-0.03,0-0.04-0.02-0.04-0.05c0-0.03,0-0.06,0-0.09C11.31,7.89,11.31,7.83,11.31,7.76z M11.4,7.52c0,0.02,0,0.46,0.01,0.48
			C11.55,8,11.7,8,11.85,8c0-0.02,0-0.46-0.01-0.48C11.69,7.52,11.55,7.52,11.4,7.52z"/>
		<path d="M11.59,6.69c-0.03,0-0.05,0-0.08,0c-0.01,0-0.02,0-0.02,0c-0.02,0-0.03-0.02-0.03-0.03c0-0.01,0-0.02,0-0.02
			c0-0.06,0-0.12,0-0.18c0-0.01,0-0.01,0-0.02c0-0.03,0.02-0.04,0.04-0.04c0.02,0,0.04,0.02,0.05,0.04c0,0.01,0,0.02,0,0.02
			c0,0.04,0,0.09,0,0.14c0.01,0,0.02,0,0.03,0c0.15,0,0.31,0,0.46-0.01c0.01,0,0.01,0,0.02,0c0.04,0,0.05,0.02,0.06,0.06
			c0,0.11,0,0.22,0,0.32c0,0.01,0,0.02,0,0.03c-0.01,0.02-0.02,0.03-0.04,0.03c-0.02,0-0.04-0.01-0.04-0.03c0-0.01,0-0.02,0-0.03
			c0-0.09,0-0.17,0-0.26c0-0.01,0-0.02,0-0.03c-0.11,0-0.22,0-0.33,0c0,0.02,0,0.15,0,0.17c0.01,0,0.01,0,0.02,0
			c0.04,0,0.08,0,0.13,0c0.01,0,0.02,0,0.02,0c0.02,0.01,0.03,0.03,0.03,0.05c0,0.02-0.02,0.04-0.04,0.04c0,0-0.01,0-0.01,0
			c-0.06,0-0.12,0-0.18,0c-0.04,0-0.05-0.02-0.05-0.06c0-0.06,0-0.12,0-0.18C11.59,6.71,11.59,6.7,11.59,6.69z"/>
		<path d="M12.56,6.67c0.06,0,0.13,0,0.19,0c0-0.01,0-0.02,0-0.03c0-0.03,0-0.05,0-0.08c0-0.03,0.02-0.05,0.04-0.05
			c0.04,0,0.09,0,0.13,0c0.02,0,0.04,0.02,0.04,0.05c0,0.02-0.02,0.04-0.04,0.05c-0.02,0-0.04,0-0.06,0c-0.01,0-0.02,0-0.03,0
			c0,0.01,0,0.02,0,0.04c0,0.02,0,0.05,0,0.07c0,0.03-0.02,0.05-0.05,0.05c-0.02,0-0.05,0-0.07,0c0,0,0,0-0.01,0
			c0,0.01,0,0.01,0,0.02c0,0.04,0,0.07,0,0.11c0,0.04-0.02,0.05-0.05,0.05c-0.08,0-0.15,0-0.23,0c-0.01,0-0.02,0-0.03-0.01
			c-0.02-0.01-0.03-0.03-0.02-0.05c0-0.02,0.02-0.04,0.04-0.04c0.01,0,0.01,0,0.02,0c0.05,0,0.1,0,0.15,0c0.01,0,0.02,0,0.02,0
			c0-0.03,0-0.06,0-0.09c-0.01,0-0.01,0-0.02,0c-0.03,0-0.06,0-0.09,0c-0.03,0-0.05-0.02-0.05-0.05c0-0.01,0-0.01,0-0.02
			c-0.01,0-0.01,0-0.02,0c-0.02,0-0.04,0-0.06,0c-0.02,0-0.04-0.02-0.04-0.04c0-0.02,0.01-0.04,0.03-0.05c0.01,0,0.01,0,0.02,0
			c0.03,0,0.07,0,0.1,0c0.03,0,0.05,0.02,0.05,0.05C12.56,6.66,12.56,6.67,12.56,6.67z"/>
		<path d="M12.07,7.44c0.01,0,0.02,0,0.03,0c0.11,0,0.21,0,0.32,0c0.01,0,0.02,0,0.03,0c0.02,0.01,0.03,0.03,0.03,0.05
			c0,0.02-0.02,0.04-0.04,0.04c-0.01,0-0.01,0-0.02,0c-0.12,0-0.25,0-0.37,0c-0.01,0-0.01,0-0.02,0c-0.03,0-0.04-0.02-0.04-0.05
			c0-0.1,0-0.2,0-0.3c0-0.03,0.02-0.05,0.04-0.05c0.03,0,0.05,0.02,0.05,0.05c0,0.07,0,0.15,0,0.22
			C12.07,7.42,12.07,7.43,12.07,7.44z"/>
		<path d="M12.13,6.21c0-0.03,0-0.07,0-0.1c-0.01,0-0.01,0-0.02,0c-0.03,0-0.05,0-0.08,0c-0.03,0-0.05-0.02-0.05-0.05
			c0-0.03,0.02-0.05,0.04-0.05c0.01,0,0.01,0,0.02,0c0.07,0,0.15,0,0.22,0c0.01,0,0.01,0,0.02,0c0.02,0,0.04,0.02,0.04,0.04
			c0,0.02-0.01,0.04-0.03,0.05c-0.01,0-0.02,0-0.02,0c-0.01,0-0.03,0-0.04,0c0,0.01,0,0.02,0,0.02c0,0.03,0,0.06,0,0.09
			c0,0.07-0.01,0.09-0.08,0.08c-0.01,0-0.02,0-0.04,0c0,0.02,0,0.04,0,0.07c0,0.01,0,0.03-0.01,0.04c-0.01,0.01-0.03,0.02-0.04,0.01
			c-0.02-0.01-0.03-0.02-0.03-0.04c0-0.04,0-0.09,0-0.13c0-0.02,0.02-0.04,0.04-0.04c0.02,0,0.03,0,0.05,0
			C12.11,6.21,12.12,6.21,12.13,6.21z"/>
		<path d="M12.61,7.99c0.01,0,0.02,0,0.02,0c0.06,0,0.13,0,0.19,0c0.01,0,0.01,0,0.02,0c0.02,0,0.04,0.02,0.04,0.04
			c0,0.02-0.01,0.04-0.03,0.05c-0.01,0-0.02,0-0.02,0c-0.09,0-0.17,0-0.26,0c-0.04,0-0.05-0.02-0.05-0.06c0-0.03,0-0.06,0-0.09
			c0-0.01,0-0.01,0-0.02c-0.01,0-0.01,0-0.02,0c-0.05,0-0.1,0-0.15,0c-0.01,0-0.02,0-0.02,0c-0.02-0.01-0.03-0.03-0.03-0.05
			c0-0.02,0.02-0.04,0.04-0.04c0,0,0.01,0,0.01,0c0.07,0,0.14,0,0.21,0c0.03,0,0.05,0.02,0.05,0.05c0,0.03,0,0.06,0,0.09
			C12.61,7.97,12.61,7.98,12.61,7.99z"/>
		<path d="M13.5,7.21c0.01,0,0.02,0,0.03,0c0.05,0,0.1,0,0.15,0c0.03,0,0.05,0.02,0.05,0.04c0,0.03-0.01,0.05-0.04,0.05
			c0,0-0.01,0-0.01,0c-0.07,0-0.14,0-0.21,0c-0.01,0-0.03,0-0.04-0.02c-0.01-0.01-0.01-0.02-0.01-0.04c0-0.04,0-0.07,0-0.11
			c0-0.01,0-0.02,0-0.03c-0.01,0-0.02,0-0.02,0c-0.05,0-0.1,0-0.15,0c-0.03,0-0.05-0.02-0.05-0.05c0-0.02,0.02-0.04,0.04-0.04
			c0,0,0,0,0,0c0.08,0,0.16,0,0.23,0c0.02,0,0.04,0.02,0.04,0.04c0,0.01,0,0.01,0,0.02c0,0.04,0,0.07,0,0.11
			C13.5,7.19,13.5,7.2,13.5,7.21z"/>
		<path d="M13.45,6.72c0.06,0,0.12,0,0.18,0c0-0.01,0-0.01,0-0.02c0-0.04,0-0.07,0-0.11c0-0.01,0-0.01,0-0.02
			c0-0.03,0.02-0.05,0.05-0.05c0.02,0,0.04,0.02,0.04,0.05c0,0,0,0.01,0,0.01c0,0.06,0,0.12,0,0.18c0,0.03-0.02,0.06-0.05,0.06
			c-0.02,0-0.04,0-0.06,0c-0.06,0-0.12,0-0.18,0c-0.01,0-0.02,0-0.02,0c-0.02,0-0.04-0.02-0.04-0.05c0-0.06,0-0.12,0-0.18
			c0-0.03,0.02-0.05,0.04-0.05c0.02,0,0.04,0.02,0.04,0.05c0,0.03,0,0.07,0,0.1C13.45,6.7,13.45,6.71,13.45,6.72z"/>
		<path d="M13.07,6.42c-0.01,0-0.02,0-0.03,0c-0.08,0-0.16,0-0.25,0c-0.01,0-0.01,0-0.02,0c-0.02,0-0.04-0.02-0.04-0.04
			c0-0.02,0.01-0.04,0.03-0.05c0.01,0,0.01,0,0.02,0c0.11,0,0.21,0,0.32,0c0.03,0,0.05,0.02,0.05,0.05c0,0.09,0,0.18,0,0.27
			c0,0.03-0.02,0.05-0.04,0.05c-0.03,0-0.05-0.02-0.05-0.04c0-0.01,0-0.01,0-0.02c0-0.06,0-0.13,0-0.19
			C13.07,6.45,13.07,6.44,13.07,6.42z"/>
		<path d="M12.83,7.43c0-0.01,0-0.02,0-0.03c0-0.09,0-0.17,0-0.26c0-0.01,0-0.02,0-0.03c0.01-0.02,0.02-0.04,0.05-0.04
			c0.02,0,0.04,0.02,0.04,0.04c0,0.01,0,0.02,0,0.02c0,0.11,0,0.21,0,0.32c0,0,0,0,0,0.01c0,0.04-0.02,0.05-0.05,0.06
			c-0.06,0-0.11,0-0.17,0c-0.01,0-0.02,0-0.03,0c-0.02,0-0.04-0.02-0.04-0.04c0-0.02,0.01-0.04,0.03-0.05c0.01,0,0.02,0,0.02,0
			c0.04,0,0.07,0,0.11,0C12.81,7.43,12.82,7.43,12.83,7.43z"/>
		<path d="M12.16,7.83c-0.01,0-0.02,0-0.02,0c-0.04,0-0.07,0-0.11,0c-0.03,0-0.05-0.02-0.05-0.05c0-0.03,0-0.07,0-0.1
			c0-0.02,0.02-0.04,0.04-0.05c0.02,0,0.04,0.01,0.05,0.03c0,0.01,0,0.01,0,0.02c0,0.02,0,0.03,0,0.05c0,0,0,0,0,0
			c0.01,0,0.01,0,0.02,0c0.04,0,0.07,0,0.11,0c0.04,0,0.05,0.02,0.05,0.06c0,0.08,0,0.16,0,0.24c0,0.01,0,0.02,0,0.02
			c-0.01,0.02-0.03,0.03-0.04,0.03c-0.02,0-0.04-0.02-0.04-0.04c0-0.01,0-0.01,0-0.02c0-0.06,0-0.11,0-0.17
			C12.16,7.85,12.16,7.84,12.16,7.83z"/>
		<path d="M12.9,6.11c0-0.01,0-0.02,0-0.03c0-0.11,0-0.23,0-0.34c0-0.01,0-0.02,0-0.03c0-0.02,0.02-0.04,0.04-0.04
			c0.02,0,0.04,0.02,0.04,0.04c0,0.01,0,0.02,0,0.02c0,0.14,0,0.27,0,0.41c0,0,0,0,0,0.01c0,0.03-0.02,0.05-0.05,0.05
			c-0.03,0-0.06,0-0.08,0c-0.03,0-0.05-0.03-0.05-0.05c0-0.03,0.02-0.05,0.05-0.05C12.88,6.11,12.89,6.11,12.9,6.11z"/>
		<path d="M12.58,7.65c0.08,0,0.16,0,0.24,0c0.01,0,0.02,0,0.03,0c0.02,0.01,0.03,0.03,0.03,0.05c0,0.02-0.02,0.04-0.04,0.04
			c-0.01,0-0.01,0-0.02,0c-0.16,0-0.32,0-0.47,0.01c-0.01,0-0.02,0-0.03,0c-0.02-0.01-0.03-0.03-0.03-0.05
			c0-0.02,0.02-0.04,0.04-0.04c0.01,0,0.01,0,0.02,0C12.43,7.65,12.51,7.65,12.58,7.65z"/>
		<path d="M11.77,7.25c0-0.01,0-0.02,0-0.03c0-0.04,0-0.08,0-0.12c0-0.02,0.02-0.04,0.04-0.05c0.02,0,0.04,0.01,0.05,0.03
			c0,0.01,0,0.01,0,0.02c0,0.06,0,0.13,0,0.19c0,0.03-0.02,0.05-0.04,0.05c0,0-0.01,0-0.01,0c-0.09,0-0.18,0-0.26,0
			c-0.01,0-0.02,0-0.03,0c-0.02-0.01-0.03-0.03-0.03-0.05c0-0.02,0.02-0.04,0.04-0.04c0.01,0,0.01,0,0.02,0c0.07,0,0.14,0,0.2,0
			C11.76,7.25,11.76,7.25,11.77,7.25z"/>
		<path d="M11.39,7.16c0,0.04,0,0.08,0,0.12c0,0.01,0,0.02,0,0.03c0,0.03-0.02,0.05-0.05,0.05c-0.02,0-0.04-0.02-0.04-0.05
			c0-0.04,0-0.08,0-0.11c0-0.03,0-0.05,0-0.08c0-0.03,0.02-0.05,0.05-0.05c0.1,0,0.19,0,0.29,0c0.02,0,0.04,0.02,0.05,0.04
			c0,0.02-0.01,0.04-0.03,0.05c-0.01,0-0.02,0-0.02,0c-0.07,0-0.14,0-0.21,0C11.41,7.16,11.4,7.16,11.39,7.16z"/>
		<path d="M12.47,5.81c-0.03,0-0.05,0-0.08,0c-0.01,0-0.02,0-0.02,0c-0.02-0.01-0.03-0.03-0.02-0.05c0-0.02,0.02-0.04,0.04-0.04
			c0.02,0,0.05,0,0.07,0c0.02,0,0.04,0,0.05,0c0.03,0,0.05,0.02,0.05,0.05c0,0.02,0,0.04,0,0.07c0.01,0,0.02,0,0.03,0
			c0.05,0,0.1,0,0.15,0c0.03,0,0.05,0.02,0.05,0.05c0,0.02-0.02,0.04-0.04,0.05c0,0-0.01,0-0.01,0c-0.07,0-0.14,0-0.21,0
			c-0.01,0-0.02,0-0.03-0.01c-0.01-0.01-0.02-0.02-0.02-0.04C12.48,5.85,12.48,5.83,12.47,5.81z"/>
		<path d="M12.4,7.14c0,0.01,0,0.02,0,0.03c0,0.04,0,0.09,0,0.13c0,0.03-0.02,0.05-0.04,0.05c-0.03,0-0.05-0.02-0.05-0.05
			c0-0.03,0-0.06,0-0.09c0-0.02,0-0.04,0-0.06c-0.01,0-0.01,0-0.02,0c-0.02,0-0.04,0-0.07,0c-0.03,0-0.05-0.02-0.05-0.05
			c0-0.03,0.02-0.05,0.05-0.05c0,0,0.01,0,0.01,0c0.08,0,0.16,0,0.23,0c0.01,0,0.02,0,0.03,0c0.02,0.01,0.03,0.03,0.03,0.05
			c0,0.02-0.02,0.04-0.04,0.04c-0.02,0-0.04,0-0.07,0C12.42,7.14,12.41,7.14,12.4,7.14z"/>
		<path d="M13.11,7.21c0.04,0,0.08,0,0.11,0c0.01,0,0.02,0,0.03,0c0.02,0,0.04,0.02,0.04,0.04c0,0.03-0.01,0.05-0.04,0.05
			c0,0-0.01,0-0.01,0c-0.06,0-0.11,0-0.17,0c-0.04,0-0.06-0.03-0.06-0.06c0-0.08,0-0.16,0-0.24c0-0.03,0.01-0.05,0.03-0.05
			c0.03-0.01,0.05,0.01,0.05,0.04c0,0.01,0,0.02,0,0.02c0,0.06,0,0.11,0,0.17C13.11,7.19,13.11,7.2,13.11,7.21z"/>
		<path d="M12.95,7.84c0-0.03,0-0.06,0-0.09c0-0.01,0-0.02,0-0.03C12.96,7.7,12.98,7.69,13,7.69c0.02,0,0.04,0.02,0.04,0.04
			c0,0,0,0,0,0c0,0.05,0,0.11,0,0.16c0,0.03-0.02,0.04-0.04,0.04c0,0-0.01,0-0.01,0c-0.08,0-0.16,0-0.23,0c0,0-0.01,0-0.01,0
			c-0.03,0-0.05-0.02-0.05-0.05c0-0.03,0.02-0.05,0.05-0.05c0.06,0,0.13,0,0.19,0C12.94,7.84,12.94,7.84,12.95,7.84z"/>
		<path d="M13.49,6.44c-0.01,0-0.02,0-0.03,0c-0.06,0-0.13,0-0.19,0c-0.01,0-0.02,0-0.02,0c-0.02-0.01-0.03-0.03-0.03-0.05
			c0-0.02,0.02-0.04,0.04-0.04c0,0,0.01,0,0.01,0c0.08,0,0.17,0,0.25,0c0.03,0,0.06,0.02,0.06,0.06c0,0.03,0,0.07,0,0.1
			c0,0.03-0.02,0.06-0.05,0.05c-0.02,0-0.03-0.02-0.03-0.03c0-0.01,0-0.02,0-0.03C13.49,6.48,13.49,6.46,13.49,6.44z"/>
		<path d="M12.73,6.11c0,0.02,0,0.05,0,0.07c0,0.01,0,0.02,0,0.03c-0.01,0.02-0.03,0.03-0.05,0.03c-0.02,0-0.04-0.02-0.04-0.04
			c0-0.01,0-0.03,0-0.04c0-0.01,0-0.02,0-0.03c-0.01,0-0.02,0-0.02,0c-0.04,0-0.09,0-0.13,0c-0.02,0-0.05-0.02-0.05-0.05
			c0-0.02,0.02-0.04,0.04-0.05c0.01,0,0.01,0,0.02,0c0.08,0,0.16,0,0.24,0c0.01,0,0.02,0,0.03,0c0.02,0.01,0.03,0.03,0.03,0.05
			c0,0.02-0.02,0.04-0.04,0.04C12.74,6.11,12.74,6.11,12.73,6.11z"/>
		<path d="M12.48,6.3c0,0.01,0,0.02,0,0.03c0,0.01,0,0.02,0,0.03c0,0.03-0.02,0.05-0.04,0.05c-0.02,0-0.04-0.02-0.05-0.05
			c0-0.01,0-0.03,0-0.04c0-0.01,0-0.02,0-0.03c-0.01,0-0.02,0-0.03,0c-0.02,0-0.03,0-0.05,0c-0.02,0-0.03-0.02-0.04-0.04
			c0-0.02,0.01-0.04,0.03-0.05c0.01,0,0.02-0.01,0.02-0.01c0.07,0,0.14,0,0.21,0c0.01,0,0.01,0,0.02,0
			c0.02,0.01,0.03,0.03,0.03,0.05c0,0.02-0.02,0.04-0.04,0.04c-0.02,0-0.03,0-0.05,0C12.49,6.3,12.48,6.3,12.48,6.3z"/>
		<path d="M13.22,6.78c0-0.01,0-0.03,0-0.04c0-0.03,0-0.05,0-0.08c0-0.03,0.02-0.05,0.04-0.05c0.02,0,0.04,0.02,0.04,0.05
			c0,0.06,0,0.11,0,0.17c0,0.03-0.02,0.05-0.04,0.05c-0.05,0-0.1,0-0.15,0c-0.02,0-0.04-0.02-0.04-0.05c0-0.03,0.02-0.05,0.04-0.05
			c0.03,0,0.05,0,0.08,0C13.2,6.78,13.21,6.78,13.22,6.78z"/>
		<path d="M12.67,7.14c-0.02,0-0.03,0-0.04,0c-0.03,0-0.04-0.02-0.05-0.05c0-0.03,0.02-0.05,0.05-0.05c0.03,0,0.06,0,0.09,0
			c0.03,0,0.05,0.02,0.05,0.05c0,0,0,0.01,0,0.01c0,0.06,0,0.11,0,0.17c0,0.01,0,0.02,0,0.02c0,0.02-0.02,0.04-0.04,0.04
			c-0.02,0-0.04-0.01-0.04-0.04c0-0.01,0-0.02,0-0.02c0-0.04,0-0.07,0-0.11C12.67,7.16,12.67,7.15,12.67,7.14z"/>
		<path d="M12.57,6.45c0-0.03,0-0.05,0-0.07c0-0.03,0.02-0.05,0.05-0.05c0.02,0,0.04,0.02,0.04,0.05c0,0.02,0,0.04,0,0.06
			c0,0.02,0,0.04,0,0.05c0,0.03-0.02,0.05-0.05,0.05c-0.04,0-0.07,0-0.11,0c-0.03,0-0.05-0.02-0.05-0.05c0-0.03,0.02-0.05,0.05-0.05
			C12.53,6.45,12.55,6.45,12.57,6.45z"/>
		<path d="M11.41,6.85c-0.02,0-0.03,0-0.05,0c-0.01,0-0.02,0-0.03,0c-0.02,0-0.03-0.02-0.03-0.04c0-0.02,0.01-0.04,0.03-0.05
			c0.01,0,0.02,0,0.02,0c0.03,0,0.06,0,0.1,0c0.04,0,0.05,0.02,0.05,0.05c0,0.04,0,0.07,0,0.11c0,0.01,0,0.02,0,0.03
			c-0.01,0.02-0.03,0.03-0.05,0.03c-0.02,0-0.04-0.02-0.04-0.04c0-0.02,0-0.03,0-0.05C11.41,6.86,11.41,6.86,11.41,6.85z"/>
		<path d="M12.29,6.74c0.01,0,0.02,0,0.03,0c0.01,0,0.02,0,0.03,0c0.02,0.01,0.03,0.03,0.03,0.05c0,0.02-0.01,0.04-0.03,0.05
			c-0.01,0-0.01,0-0.02,0c-0.03,0-0.05,0-0.08,0c-0.03,0-0.05-0.02-0.05-0.05c0-0.04,0-0.07,0-0.11c0-0.01,0-0.02,0-0.03
			c0.01-0.02,0.03-0.03,0.05-0.03c0.02,0,0.04,0.02,0.04,0.04c0,0.02,0,0.03,0,0.05C12.29,6.72,12.29,6.73,12.29,6.74z"/>
		<path d="M11.8,6.41c0.03,0,0.06,0,0.09,0c0.01,0,0.02,0,0.02,0c0.02,0.01,0.03,0.02,0.03,0.04c0,0.02-0.01,0.03-0.02,0.04
			c-0.01,0-0.01,0.01-0.02,0.01c-0.06,0-0.12,0-0.19,0c-0.03,0-0.05-0.02-0.05-0.04c0-0.03,0.02-0.05,0.04-0.05
			c0.02,0,0.05,0,0.07,0C11.78,6.41,11.79,6.41,11.8,6.41z"/>
		<path d="M12.27,5.8c0,0.03,0,0.06,0,0.1c0,0.03-0.02,0.05-0.05,0.05c-0.02,0-0.04-0.02-0.04-0.04c0-0.01,0-0.02,0-0.02
			c0-0.05,0-0.11,0-0.16c0-0.01,0-0.01,0-0.02c0-0.03,0.02-0.04,0.04-0.04c0.02,0,0.04,0.02,0.05,0.04c0,0.02,0,0.04,0,0.06
			C12.27,5.78,12.27,5.79,12.27,5.8C12.27,5.8,12.27,5.8,12.27,5.8z"/>
		<path d="M12,5.8c0-0.03,0-0.06,0-0.08c0-0.01,0-0.01,0-0.02c0-0.02,0.02-0.04,0.04-0.04c0.02,0,0.04,0.02,0.05,0.04
			c0,0.01,0,0.01,0,0.02c0,0.06,0,0.11,0,0.17c0,0.01,0,0.02,0,0.02c-0.01,0.02-0.02,0.04-0.04,0.03c-0.02,0-0.04-0.01-0.04-0.04
			c0-0.01,0-0.01,0-0.02C12,5.86,12,5.83,12,5.8z"/>
		<path d="M12.91,6.86c0-0.03,0-0.05,0-0.08c0-0.02,0.01-0.04,0.03-0.05c0.02-0.01,0.03-0.01,0.05,0.01C12.99,6.75,13,6.77,13,6.78
			c0,0.05,0,0.1,0,0.16c0,0.03-0.02,0.05-0.05,0.05c-0.03,0-0.04-0.02-0.04-0.05c0,0,0,0,0,0C12.91,6.91,12.91,6.89,12.91,6.86
			C12.91,6.86,12.91,6.86,12.91,6.86z"/>
		<path d="M11.3,6.52c0-0.03,0-0.05,0-0.08c0-0.03,0.02-0.05,0.05-0.05c0.02,0,0.04,0.02,0.05,0.05c0,0.05,0,0.11,0,0.16
			c0,0.02-0.01,0.04-0.03,0.05c-0.02,0.01-0.04,0-0.05-0.01C11.3,6.63,11.3,6.62,11.3,6.6C11.3,6.58,11.3,6.55,11.3,6.52z"/>
		<path d="M12.6,7.31c0,0.03,0,0.05,0,0.08c0,0.02-0.02,0.04-0.03,0.04c-0.02,0.01-0.04,0-0.05-0.03c0-0.01,0-0.01,0-0.02
			c0-0.05,0-0.1,0-0.15c0-0.02,0.01-0.03,0.02-0.04c0.01-0.01,0.03-0.02,0.04-0.01c0.02,0.01,0.03,0.02,0.03,0.04
			C12.6,7.26,12.6,7.29,12.6,7.31C12.6,7.31,12.6,7.31,12.6,7.31z"/>
		<path d="M13.7,6.99c0,0.03,0,0.05,0,0.08c0,0.02-0.01,0.04-0.03,0.04c-0.02,0.01-0.04,0-0.05-0.02c0-0.01-0.01-0.02-0.01-0.03
			c0-0.05,0-0.09,0-0.14c0-0.03,0.02-0.05,0.04-0.05c0.03,0,0.04,0.02,0.05,0.05c0,0,0,0,0,0C13.7,6.94,13.7,6.96,13.7,6.99
			C13.7,6.99,13.7,6.99,13.7,6.99z"/>
		<path d="M12.23,7.29c0,0.02,0,0.03,0,0.05c0,0.03-0.02,0.05-0.04,0.05c-0.02,0-0.04-0.02-0.05-0.05c0-0.03,0-0.07,0-0.1
			c0-0.04,0.04-0.06,0.07-0.04c0.01,0.01,0.02,0.02,0.02,0.04C12.23,7.26,12.23,7.27,12.23,7.29z"/>
		<path d="M12.33,6.47c0,0.02,0,0.03,0,0.05c0,0.03-0.02,0.05-0.04,0.05c-0.02,0-0.04-0.02-0.05-0.05c0-0.03,0-0.07,0-0.1
			c0-0.03,0.02-0.05,0.04-0.05c0.02,0,0.04,0.02,0.04,0.05C12.33,6.44,12.33,6.46,12.33,6.47C12.33,6.47,12.33,6.47,12.33,6.47z"/>
		<path class="st1" d="M11.38,5.74c0.15,0,0.3,0,0.44-0.01c0,0.16,0,0.32,0.01,0.48c-0.15,0-0.3,0-0.44,0.01
			C11.38,6.06,11.38,5.9,11.38,5.74z M11.6,5.81c-0.04,0-0.07,0-0.11,0c-0.03,0-0.05,0.02-0.05,0.05c0,0.08,0,0.16,0,0.23
			c0,0.03,0.02,0.05,0.05,0.05c0.07,0,0.14,0,0.22,0c0.03,0,0.05-0.02,0.05-0.05c0-0.08,0-0.16,0-0.23c0-0.03-0.03-0.05-0.05-0.05
			C11.67,5.81,11.64,5.81,11.6,5.81z"/>
		<path class="st1" d="M13.17,5.72c0.15,0,0.3,0,0.44-0.01c0,0.16,0,0.32,0.01,0.48c-0.15,0-0.3,0-0.44,0.01
			C13.17,6.04,13.17,5.88,13.17,5.72z M13.55,5.96C13.55,5.96,13.55,5.96,13.55,5.96c0-0.04,0-0.08,0-0.12
			c0-0.04-0.03-0.05-0.05-0.05c-0.07,0-0.14,0-0.21,0c-0.03,0-0.05,0.02-0.05,0.06c0,0.03,0,0.06,0,0.09c0,0.04,0,0.09,0,0.13
			c0,0.03,0.02,0.05,0.05,0.05c0.07,0,0.15,0,0.22,0c0.03,0,0.04-0.02,0.05-0.05c0-0.01,0-0.01,0-0.02
			C13.55,6.02,13.55,5.99,13.55,5.96z"/>
		<path class="st1" d="M13.64,7.5c0,0.16,0,0.32,0.01,0.48c-0.02,0-0.42,0.01-0.44,0.01c0-0.16,0-0.32-0.01-0.48
			C13.21,7.5,13.61,7.49,13.64,7.5z M13.41,7.57c-0.04,0-0.07,0-0.11,0c-0.03,0-0.05,0.02-0.05,0.05c0,0.08,0,0.15,0,0.23
			c0,0.03,0.02,0.05,0.05,0.05c0.07,0,0.14,0,0.22,0c0.03,0,0.05-0.02,0.05-0.05c0-0.08,0-0.16,0-0.23c0-0.03-0.02-0.05-0.05-0.05
			C13.49,7.57,13.45,7.57,13.41,7.57z"/>
		<path class="st1" d="M11.4,7.52c0.15,0,0.29,0,0.44-0.01c0,0.02,0.01,0.46,0.01,0.48C11.7,8,11.55,8,11.41,8
			C11.4,7.98,11.4,7.55,11.4,7.52z M11.63,7.93c0.03,0,0.07,0,0.1,0c0.04,0,0.05-0.02,0.05-0.06c0-0.07,0-0.15,0-0.22
			c0-0.04-0.02-0.06-0.05-0.06c-0.07,0-0.14,0-0.21,0c-0.04,0-0.05,0.02-0.05,0.06c0,0.07,0,0.15,0,0.22c0,0.04,0.02,0.06,0.05,0.06
			C11.56,7.93,11.59,7.93,11.63,7.93z"/>
		<path d="M11.6,5.81c0.04,0,0.07,0,0.11,0c0.03,0,0.05,0.02,0.05,0.05c0,0.08,0,0.16,0,0.23c0,0.03-0.02,0.05-0.05,0.05
			c-0.07,0-0.14,0-0.22,0c-0.03,0-0.05-0.02-0.05-0.05c0-0.08,0-0.16,0-0.23c0-0.03,0.02-0.05,0.05-0.05
			C11.53,5.81,11.57,5.81,11.6,5.81z M11.54,5.91c0,0.05,0,0.09,0,0.14c0.02,0,0.12,0,0.13,0c0-0.05,0-0.09,0-0.14
			C11.62,5.91,11.58,5.91,11.54,5.91z"/>
		<path d="M13.55,5.96c0,0.03,0,0.07,0,0.1c0,0.01,0,0.01,0,0.02c0,0.03-0.02,0.05-0.05,0.05c-0.07,0-0.15,0-0.22,0
			c-0.03,0-0.05-0.02-0.05-0.05c0-0.04,0-0.09,0-0.13c0-0.03,0-0.06,0-0.09c0-0.04,0.02-0.06,0.05-0.06c0.07,0,0.14,0,0.21,0
			c0.03,0,0.05,0.02,0.05,0.05C13.55,5.88,13.55,5.92,13.55,5.96C13.55,5.96,13.55,5.96,13.55,5.96z M13.33,6.03
			c0.04,0,0.09,0,0.13,0c0-0.05,0-0.1,0-0.14c-0.04,0-0.09,0-0.13,0C13.33,5.93,13.33,5.98,13.33,6.03z"/>
		<path d="M13.41,7.57c0.04,0,0.07,0,0.11,0c0.03,0,0.05,0.02,0.05,0.05c0,0.08,0,0.16,0,0.23c0,0.03-0.02,0.05-0.05,0.05
			c-0.07,0-0.14,0-0.22,0c-0.03,0-0.05-0.02-0.05-0.05c0-0.08,0-0.15,0-0.23c0-0.03,0.02-0.05,0.05-0.05
			C13.34,7.57,13.38,7.57,13.41,7.57z M13.48,7.81c0-0.02,0-0.13,0-0.14c-0.04,0-0.11,0-0.13,0c0,0.04,0,0.12,0,0.14
			C13.4,7.81,13.44,7.81,13.48,7.81z"/>
		<path d="M11.63,7.93c-0.03,0-0.07,0-0.1,0c-0.04,0-0.05-0.02-0.05-0.06c0-0.07,0-0.15,0-0.22c0-0.04,0.02-0.06,0.05-0.06
			c0.07,0,0.14,0,0.21,0c0.03,0,0.05,0.02,0.05,0.06c0,0.07,0,0.15,0,0.22c0,0.04-0.02,0.06-0.05,0.06
			C11.7,7.93,11.66,7.93,11.63,7.93z M11.69,7.69c-0.04,0-0.09,0-0.13,0c0,0.05,0,0.09,0,0.14c0.04,0,0.09,0,0.13,0
			C11.69,7.78,11.69,7.74,11.69,7.69z"/>
		<path class="st1" d="M11.54,5.91c0.04,0,0.09,0,0.13,0c0,0.05,0,0.09,0,0.14c-0.01,0.01-0.11,0.01-0.13,0
			C11.54,6,11.54,5.96,11.54,5.91z"/>
		<path class="st1" d="M13.33,6.03c0-0.05,0-0.09,0-0.14c0.04,0,0.09,0,0.13,0c0,0.05,0,0.09,0,0.14
			C13.42,6.03,13.38,6.03,13.33,6.03z"/>
		<path class="st1" d="M13.48,7.81c-0.04,0-0.08,0-0.13,0c0-0.02-0.01-0.1,0-0.14c0.01,0,0.09-0.01,0.13,0
			C13.48,7.68,13.49,7.78,13.48,7.81z"/>
		<path class="st1" d="M11.69,7.69c0,0.05,0,0.09,0,0.14c-0.04,0-0.09,0-0.13,0c0-0.05,0-0.09,0-0.14
			C11.6,7.69,11.64,7.69,11.69,7.69z"/>
	</g>
</g>
</svg>
