<?xml version="1.0" encoding="utf-8"?>
<!-- Generator: Adobe Illustrator 24.0.0, SVG Export Plug-In . SVG Version: 6.00 Build 0)  -->
<svg version="1.1" id="Calque_1" xmlns="http://www.w3.org/2000/svg" xmlns:xlink="http://www.w3.org/1999/xlink" x="0px" y="0px"
	 viewBox="0 0 1366 768" style="enable-background:new 0 0 1366 768;" xml:space="preserve">
<style type="text/css">
	.st0{fill:#E95517;}
	.st1{fill:#FFFFFF;}
</style>
<path class="st0" d="M204.89,335.42c0,10.38-3.77,17.46-11.13,21.08l6.85,14.16c0.86,1.81-0.51,2.96-2.4,2.96H180.4
	c-1.71,0-2.23-0.99-2.91-2.31l-5.82-12.19h-10.62c-16.1,0-24.66-8.23-24.66-23.72v-84.32c0-15.48,8.56-23.71,24.66-23.71h19.18
	c16.1,0,24.66,8.23,24.66,23.71V335.42z M159.67,330.82c0,4.45,2.4,6.59,6.85,6.59h8.91c4.45,0,6.85-2.14,6.85-6.59v-75.1
	c0-4.28-2.4-6.59-6.85-6.59h-8.91c-4.45,0-6.85,2.31-6.85,6.59V330.82z"/>
<path class="st0" d="M292.42,290.47c0,10.89-3.78,18.05-11.05,21.46l10.45,42.59c0.46,1.95-0.45,2.93-2.12,2.93h-15.74
	c-1.52,0-2.27-0.81-2.58-2.28l-10.14-41.29h-10.45v40.97c0,1.63-0.91,2.6-2.42,2.6h-15.75c-1.51,0-2.42-0.98-2.42-2.6V230
	c0-1.63,0.91-2.6,2.42-2.6h38c14.23,0,21.8,8.13,21.8,23.41V290.47z M265.77,292.42c3.94,0,6.06-2.27,6.06-6.5v-30.56
	c0-4.23-2.12-6.5-6.06-6.5h-14.99v43.57H265.77z"/>
<path class="st0" d="M352.38,231.67c0-1.84,1.03-2.94,2.74-2.94h41.1c16.1,0,24.66,9.2,24.66,26.48v36.04
	c0,17.1-8.56,26.3-24.66,26.48l-21.58,0.18v36.78c0,1.84-0.86,2.94-2.74,2.94l-16.78-0.18c-1.71,0-2.74-1.1-2.74-2.94V231.67z
	 M391.77,294.01c4.62,0,6.85-2.76,6.85-7.36V259.8c0-4.78-2.23-7.36-6.85-7.36l-17.13,0.18v41.56L391.77,294.01z"/>
<path class="st0" d="M506.53,292.17c0,10.67-3.25,18.21-9.59,22.44l8.91,39.54c0.52,2.21-0.51,3.31-2.4,3.31h-16.79
	c-1.71,0-2.57-0.92-2.91-2.58l-8.22-36.23h-15.24v35.86c0,1.84-1.03,2.94-2.74,2.94h-16.78c-1.71,0-2.74-1.1-2.74-2.94V231.67
	c0-1.84,1.03-2.94,2.74-2.94h41.1c16.1,0,24.66,9.2,24.66,26.48V292.17z M477.41,294.93c4.45,0,6.85-2.58,6.85-7.36V259.8
	c0-4.78-2.4-7.36-6.85-7.36h-17.13v42.48H477.41z"/>
<path class="st0" d="M744.14,275.07c0,1.84-1.03,2.94-2.74,2.94h-16.1c-1.89,0-2.74-1.11-2.74-2.94v-15.08
	c0-4.78-2.4-7.36-6.85-7.36h-10.96c-4.62,0-6.85,2.58-6.85,7.36v66.75c0,4.97,2.4,7.36,6.85,7.36h10.96c4.45,0,6.85-2.39,6.85-7.36
	v-15.63c0-1.84,0.86-2.94,2.74-2.94h16.1c1.71,0,2.74,1.1,2.74,2.94v19.86c0,17.29-8.74,26.48-24.66,26.48h-19.18
	c-16.1,0-24.84-9.19-24.84-26.48v-75.76c0-17.28,8.73-26.48,24.84-26.48h19.18c15.93,0,24.66,9.2,24.66,26.48V275.07z"/>
<path class="st0" d="M829.78,291.51c0,10.56-3.25,18.02-9.59,22.2l8.91,39.13c0.52,2.18-0.51,3.28-2.4,3.28h-16.79
	c-1.71,0-2.57-0.91-2.91-2.55l-8.22-35.85h-15.24v35.49c0,1.82-1.03,2.91-2.74,2.91h-16.78c-1.71,0-2.74-1.09-2.74-2.91V231.64
	c0-1.82,1.03-2.91,2.74-2.91h41.1c16.1,0,24.66,9.1,24.66,26.21V291.51z M800.66,294.24c4.45,0,6.85-2.55,6.85-7.28v-27.48
	c0-4.73-2.4-7.28-6.85-7.28h-17.13v42.04H800.66z"/>
<path class="st0" d="M915.25,250.06c0,1.84-0.69,3.13-2.74,3.13h-42.3v28.32h32.2c1.71,0,2.74,1.1,2.74,3.13v18.2
	c0,2.03-1.03,3.13-2.74,3.13h-32.2v27.22h42.3c2.05,0,2.74,0.92,2.74,2.94v18.39c0,1.84-0.69,2.94-2.74,2.94h-63.03
	c-1.54,0-2.57-1.1-2.57-2.94V231.67c0-1.84,1.03-2.94,2.57-2.94h63.03c2.05,0,2.74,1.1,2.74,2.94V250.06z"/>
<path class="st0" d="M992.94,356.12c-1.53,0-2.37-0.91-2.71-2.55l-5.42-22.93h-31.87l-5.25,22.93c-0.34,1.64-1.19,2.55-2.71,2.55
	h-16.61c-1.86,0-2.71-1.09-2.2-3.09l28.14-121.75c0.34-1.82,1.36-2.55,2.88-2.55h23.56c1.52,0,2.54,0.73,2.88,2.55l28.14,121.75
	c0.51,2-0.34,3.09-2.37,3.09H992.94z M968.87,260.03l-10.68,49.5h21.36L968.87,260.03z"/>
<path class="st0" d="M1065.41,228.73c1.89,0,2.74,1.1,2.74,2.94v18.39c0,1.84-0.86,2.94-2.74,2.94h-19.87v101.51
	c0,2.03-0.86,2.94-2.74,2.94h-17.81c-1.71,0-2.74-0.92-2.74-2.94V253h-19.87c-1.71,0-2.74-1.1-2.74-2.94v-18.39
	c0-1.84,1.03-2.94,2.74-2.94H1065.41z"/>
<path class="st0" d="M1089.11,254.15c0-17.46,8.65-26.75,24.92-26.75h19.38c16.26,0,24.92,9.29,24.92,26.75v76.54
	c0,17.47-8.65,26.76-24.92,26.76h-19.38c-16.27,0-24.92-9.29-24.92-26.76V254.15z M1129.6,333.48c4.5,0,6.92-2.42,6.92-7.43v-67.26
	c0-4.83-2.42-7.43-6.92-7.43h-11.07c-4.5,0-6.92,2.6-6.92,7.43v67.26c0,5.02,2.42,7.43,6.92,7.43H1129.6z"/>
<path class="st0" d="M1243.62,291.49c0,10.78-3.25,18.4-9.59,22.67l8.91,39.95c0.52,2.23-0.51,3.34-2.4,3.34h-16.78
	c-1.71,0-2.57-0.93-2.91-2.6l-8.22-36.6h-15.24v36.23c0,1.86-1.03,2.97-2.74,2.97h-16.78c-1.71,0-2.74-1.11-2.74-2.97V230.37
	c0-1.86,1.03-2.97,2.74-2.97h41.1c16.1,0,24.66,9.29,24.66,26.75V291.49z M1214.5,294.28c4.45,0,6.85-2.6,6.85-7.43v-28.05
	c0-4.83-2.4-7.43-6.85-7.43h-17.13v42.92H1214.5z"/>
<path class="st0" d="M525.1,252.64c0,0.36,0,0.65,0,0.94c0,2.43,0.01,4.86,0,7.29c0,0.96-0.37,1.53-1.1,1.79
	c-0.93,0.33-1.92-0.34-2.03-1.38c-0.02-0.18-0.01-0.37-0.01-0.56c0-3.15,0-6.3,0-9.46c0-1.45,0.55-2.06,1.89-2.06
	c3.46-0.01,6.92,0,10.38,0c0.25,0,0.5,0.02,0.74,0.08c0.75,0.2,1.22,0.91,1.18,1.72c-0.04,0.81-0.59,1.45-1.36,1.56
	c-0.27,0.04-0.55,0.04-0.82,0.04c-2.66,0-5.32,0-7.99,0C525.7,252.6,525.44,252.62,525.1,252.64z"/>
<path class="st0" d="M525.1,354.06c0.35,0,0.61,0,0.88,0c2.71,0,5.42,0,8.13,0c0.22,0,0.45-0.01,0.67,0.03
	c0.84,0.15,1.41,0.95,1.34,1.83c-0.07,0.87-0.69,1.5-1.55,1.51c-1.64,0.02-3.28,0.01-4.93,0.01c-1.99,0-3.98,0-5.97,0
	c-1.17,0-1.73-0.61-1.73-1.88c-0.01-3.26,0.02-6.52-0.02-9.78c-0.01-1.06,0.77-1.9,1.64-1.85c0.78,0.05,1.42,0.65,1.51,1.49
	c0.03,0.26,0.02,0.53,0.02,0.8c0,2.3,0,4.59,0,6.89C525.1,353.4,525.1,353.69,525.1,354.06z"/>
<path class="st0" d="M624.62,354.06c0-0.67,0-1.2,0-1.74c0-2.19,0.02-4.38-0.01-6.57c-0.02-1.08,0.8-1.88,1.67-1.82
	c0.78,0.05,1.41,0.68,1.48,1.51c0.01,0.13,0.01,0.27,0.01,0.4c0,3.23,0,6.46,0,9.7c0,0.08,0,0.16,0,0.24
	c-0.04,1-0.63,1.64-1.57,1.65c-3.68,0.01-7.36-0.01-11.05,0.02c-0.76,0.01-1.54-0.7-1.57-1.59c-0.04-0.92,0.59-1.69,1.48-1.79
	c0.2-0.02,0.4-0.01,0.6-0.01c2.69,0,5.37,0,8.06,0C623.99,354.06,624.26,354.06,624.62,354.06z"/>
<g>
	<path class="st0" d="M621.42,253.37l0.07-1.73c0,0,6.5-0.3,6.78,6.63l-1.91,0.05C626.36,258.31,626.98,254.14,621.42,253.37z"/>
	<path class="st0" d="M621.73,248.77l0.02-3.48c0,0,6.04-0.32,10.44,5.81c0,0,2.48,3.77,2.08,7.16l-3.5-0.17
		C630.78,258.1,631.13,249.67,621.73,248.77z"/>
	<path class="st0" d="M621.76,241.93l0.08-3.32c0,0,7.73-0.64,14.61,7.03c0,0,4.94,5.25,4.52,12.65l-3.46-0.15
		c0,0,0.8-7.4-6.7-13.16C630.81,244.99,627.81,242.63,621.76,241.93z"/>
</g>
<path d="M209.55,388.55c-3.38-4.34-23.9-6.87-19.11-0.73c41.77,53.55,107.29,80,173.86,83.76c74.38,4.19,146.05-27.79,204.41-72.13
	c0.21,6.1,0.41,12.2,0.62,18.3c0.35,10.45,20.1,1.8,19.78-7.76c-0.28-8.33-0.56-16.65-0.85-24.98c-0.2-5.97-0.3-12.37-4.77-16.9
	c-4.98-5.04-11.89-4.88-18.5-4.61c-9.56,0.39-19.1,1.19-28.61,2.2c-10.52,1.12-16.43,18.29-2.32,16.79c4.5-0.48,21.75-3.88,29.67-2
	c-51.29,42.38-111.01,73.48-177.83,80.75C318.93,468.53,251.05,441.76,209.55,388.55z"/>
<g>
	<path d="M531.26,271.78c0-3.27,0-6.53,0-9.8c0-0.28-0.01-0.56,0.02-0.83c0.08-0.87,0.65-1.48,1.45-1.56
		c0.26-0.03,0.52-0.02,0.77-0.02c6.14,0,12.28,0,18.41,0c0.21,0,0.41,0,0.62,0.01c0.89,0.06,1.48,0.65,1.59,1.6
		c0.03,0.25,0.02,0.5,0.02,0.75c0,6.62,0,13.24,0,19.85c0,0.28,0,0.56-0.04,0.83c-0.11,0.78-0.58,1.3-1.3,1.45
		c-0.3,0.06-0.61,0.08-0.92,0.08c-6.14,0-12.28,0-18.41,0c-0.31,0-0.62-0.02-0.92-0.08c-0.74-0.16-1.21-0.74-1.28-1.56
		c-0.02-0.25-0.01-0.5-0.01-0.75C531.26,278.42,531.26,275.1,531.26,271.78z M534.6,263.11c0,5.84,0,11.61,0,17.4
		c5.42,0,10.79,0,16.17,0c0-5.83,0-11.59,0-17.4C545.37,263.11,540.02,263.11,534.6,263.11z"/>
	<path d="M608.03,259.56c3.02,0,6.03,0,9.05,0c0.26,0,0.52-0.01,0.77,0.01c0.92,0.07,1.51,0.7,1.57,1.7
		c0.01,0.19,0.01,0.39,0.01,0.58c0,6.65,0,13.29,0,19.94c0,0.28,0.01,0.56-0.03,0.83c-0.1,0.73-0.5,1.21-1.16,1.4
		c-0.32,0.09-0.66,0.11-1,0.11c-6.16,0.01-12.33,0.01-18.49,0c-0.28,0-0.57-0.02-0.85-0.07c-0.75-0.15-1.23-0.7-1.33-1.51
		c-0.03-0.27-0.03-0.55-0.03-0.83c0-6.59,0-13.18,0-19.77c0-0.17,0-0.33,0-0.5c0.05-1.22,0.65-1.88,1.81-1.89
		C601.59,259.55,604.81,259.56,608.03,259.56C608.03,259.56,608.03,259.56,608.03,259.56z M599.92,263.11c0,5.84,0,11.61,0,17.4
		c5.42,0,10.79,0,16.18,0c0-5.82,0-11.59,0-17.4C610.69,263.11,605.34,263.11,599.92,263.11z"/>
	<path d="M619.43,336.71c0,3.27,0,6.54,0,9.8c0,0.25,0.01,0.5-0.01,0.75c-0.06,0.91-0.59,1.55-1.43,1.7
		c-0.23,0.04-0.46,0.03-0.69,0.03c-6.19,0-12.38,0-18.57,0c-0.23,0-0.47,0.01-0.69-0.03c-0.84-0.13-1.39-0.76-1.47-1.66
		c-0.02-0.22-0.01-0.44-0.01-0.66c0-6.62,0-13.24,0-19.86c0-0.25-0.01-0.5,0.02-0.75c0.1-0.94,0.7-1.56,1.58-1.62
		c0.18-0.01,0.36-0.01,0.54-0.01c6.22,0,12.43,0,18.65,0c0.21,0,0.41-0.01,0.62,0.02c0.79,0.09,1.37,0.72,1.45,1.57
		c0.03,0.27,0.02,0.55,0.02,0.83C619.43,330.12,619.43,333.42,619.43,336.71z M616.12,328.02c-1-0.17-15.64-0.13-16.2,0.03
		c0,5.77,0,11.55,0,17.32c0.93,0.17,15.62,0.13,16.2-0.04C616.12,339.58,616.12,333.82,616.12,328.02z"/>
	<path d="M531.26,336.63c0-3.27,0-6.54,0-9.8c0-0.28-0.01-0.56,0.02-0.83c0.08-0.85,0.66-1.48,1.45-1.57
		c0.23-0.03,0.46-0.02,0.7-0.02c6.19,0,12.38,0,18.57,0c0.18,0,0.36-0.01,0.54,0.01c0.88,0.07,1.48,0.68,1.58,1.62
		c0.03,0.25,0.02,0.5,0.02,0.75c0,6.62,0,13.24,0,19.86c0,0.22,0.01,0.44-0.01,0.66c-0.09,0.94-0.67,1.57-1.55,1.68
		c-0.2,0.03-0.41,0.02-0.62,0.02c-6.19,0-12.38,0-18.57,0c-0.18,0-0.36,0.01-0.54-0.01c-0.95-0.1-1.56-0.77-1.58-1.8
		c-0.03-1.13-0.01-2.27-0.01-3.41C531.26,341.4,531.26,339.02,531.26,336.63z M534.65,327.97c-0.16,0.88-0.13,16.8,0.02,17.45
		c5.35,0,10.7,0,16.05,0c0.16-0.87,0.13-16.81-0.02-17.45C545.35,327.97,540,327.97,534.65,327.97z"/>
	<path d="M541.85,297.86c-1.03,0-1.95,0.01-2.88,0c-0.28,0-0.58,0.01-0.84-0.07c-0.58-0.19-0.98-0.61-1.1-1.27
		c-0.05-0.27-0.07-0.55-0.07-0.82c-0.01-2.19,0-4.38,0-6.57c0-0.22,0.01-0.44,0.04-0.66c0.13-0.92,0.82-1.58,1.63-1.57
		c0.81,0.01,1.51,0.69,1.62,1.6c0.03,0.27,0.02,0.55,0.02,0.83c0,1.63,0,3.26,0,5c0.34,0.01,0.64,0.03,0.93,0.03
		c5.62,0,11.25,0,16.87,0c0.21,0,0.41,0,0.62,0c1.35,0.01,1.98,0.68,1.99,2.14c0.01,3.93,0.01,7.87,0,11.8
		c0,0.33-0.04,0.67-0.13,0.98c-0.21,0.69-0.89,1.17-1.55,1.16c-0.67-0.01-1.33-0.51-1.51-1.21c-0.09-0.34-0.11-0.71-0.11-1.06
		c-0.01-3.1,0-6.21,0-9.31c0-0.3,0-0.59,0-0.93c-4.09,0-8.07,0-12.05,0c-0.18,0.62-0.22,5.42-0.03,6.37c0.23,0,0.48,0,0.73,0
		c1.52,0,3.04-0.01,4.57,0.01c0.3,0,0.63,0.02,0.91,0.13c0.67,0.26,1.08,1.04,1.01,1.79c-0.08,0.79-0.65,1.43-1.4,1.57
		c-0.18,0.03-0.36,0.02-0.54,0.02c-2.24,0-4.49,0.01-6.73,0c-1.35,0-1.97-0.68-1.97-2.15c-0.01-2.24,0-4.49,0-6.73
		C541.85,298.6,541.85,298.29,541.85,297.86z"/>
	<path d="M577.3,297.63c2.34,0,4.6,0,6.94,0c0-0.34,0-0.63,0-0.93c0-1-0.02-1.99,0.01-2.99c0.02-0.94,0.63-1.67,1.49-1.7
		c1.6-0.04,3.2-0.05,4.8,0c0.88,0.03,1.5,0.85,1.47,1.8c-0.03,0.9-0.66,1.63-1.52,1.67c-0.67,0.04-1.34,0.01-2.01,0.01
		c-0.28,0-0.56,0-0.95,0c0,0.47,0,0.88,0,1.28c0,0.83,0.01,1.66,0,2.49c-0.02,1.25-0.62,1.89-1.77,1.91
		c-0.82,0.01-1.65,0.02-2.47,0.03c-0.05,0-0.09,0.04-0.19,0.09c-0.01,0.21-0.04,0.45-0.05,0.69c-0.01,1.33,0.01,2.66-0.01,3.99
		c-0.02,1.33-0.63,1.98-1.88,1.98c-2.76,0.01-5.52,0.01-8.28-0.01c-0.33,0-0.68-0.06-0.97-0.2c-0.66-0.32-0.99-1.11-0.86-1.86
		c0.14-0.79,0.68-1.33,1.42-1.41c0.26-0.03,0.52-0.02,0.77-0.02c1.86,0,3.71,0,5.57,0c0.28,0,0.56,0,0.89,0c0-1.09,0-2.1,0-3.2
		c-0.2-0.02-0.42-0.06-0.64-0.06c-1.08-0.01-2.17,0.01-3.25-0.01c-1.15-0.01-1.75-0.67-1.77-1.91c0-0.25,0-0.49,0-0.82
		c-0.26-0.03-0.48-0.06-0.7-0.07c-0.67-0.01-1.34,0.02-2.01-0.02c-0.85-0.05-1.45-0.7-1.53-1.58c-0.07-0.86,0.43-1.62,1.24-1.85
		c0.2-0.06,0.41-0.08,0.61-0.08c1.26-0.01,2.53,0.03,3.79-0.01c1.02-0.03,1.99,0.77,1.87,2.01
		C577.29,297.08,577.3,297.3,577.3,297.63z"/>
	<path d="M559.02,325.28c0.41,0,0.69,0,0.97,0c3.87,0,7.73,0,11.6,0c0.33,0,0.68,0.02,0.99,0.12c0.76,0.24,1.21,1.01,1.13,1.85
		c-0.08,0.8-0.65,1.42-1.41,1.52c-0.25,0.03-0.51,0.03-0.77,0.03c-4.54,0-9.07,0-13.61,0c-0.21,0-0.41,0.01-0.62-0.01
		c-0.92-0.08-1.54-0.73-1.54-1.73c-0.01-3.6-0.01-7.2,0-10.79c0-1.01,0.7-1.74,1.6-1.76c0.92-0.02,1.65,0.75,1.65,1.79
		c0.02,2.66,0.01,5.31,0.01,7.97C559.02,324.57,559.02,324.87,559.02,325.28z"/>
	<path d="M561.65,280.36c0-1.26,0-2.42,0-3.63c-0.28-0.02-0.53-0.04-0.78-0.04c-0.93-0.01-1.86,0.02-2.79-0.01
		c-0.96-0.04-1.65-0.76-1.69-1.7c-0.04-0.94,0.6-1.69,1.56-1.82c0.2-0.03,0.41-0.03,0.62-0.03c2.66,0,5.31,0,7.97,0
		c0.26,0,0.52,0.02,0.77,0.07c0.78,0.16,1.29,0.78,1.34,1.59c0.05,0.86-0.41,1.56-1.2,1.8c-0.27,0.08-0.56,0.09-0.84,0.1
		c-0.51,0.02-1.02,0-1.57,0c-0.02,0.36-0.04,0.63-0.04,0.9c0,1.11-0.04,2.22,0.01,3.32c0.1,2.5-0.42,3.18-2.86,3.03
		c-0.43-0.03-0.87,0-1.41,0c0,0.85-0.01,1.61,0,2.37c0.01,0.53-0.14,0.98-0.5,1.34c-0.47,0.46-1.01,0.65-1.64,0.41
		c-0.65-0.24-1.09-0.73-1.11-1.45c-0.05-1.55-0.05-3.1,0-4.65c0.03-0.88,0.75-1.5,1.65-1.54c0.57-0.03,1.13,0,1.7-0.01
		C561.09,280.39,561.34,280.37,561.65,280.36z"/>
	<path d="M578.41,345.47c0.33,0,0.6,0,0.88,0c2.29,0,4.59,0,6.88,0c0.23,0,0.47-0.01,0.7,0.02c0.78,0.08,1.34,0.67,1.44,1.48
		c0.1,0.81-0.29,1.58-1,1.86c-0.28,0.11-0.6,0.16-0.91,0.16c-3.12,0.01-6.24,0.01-9.36,0c-1.32,0-1.94-0.67-1.95-2.09
		c-0.01-1.05,0-2.1,0-3.16c0-0.27-0.02-0.54-0.04-0.86c-0.29-0.02-0.54-0.04-0.79-0.04c-1.8,0-3.61,0.01-5.41-0.01
		c-0.3,0-0.62-0.04-0.9-0.16c-0.71-0.29-1.12-1.08-1.01-1.86c0.12-0.83,0.74-1.42,1.54-1.48c0.1-0.01,0.21,0,0.31,0
		c2.58,0,5.16,0,7.73,0c1.25,0,1.84,0.64,1.85,1.98c0.01,1.08,0,2.16,0,3.24C578.38,344.83,578.4,345.1,578.41,345.47z"/>
	<path d="M611.29,317.42c0.38,0,0.66,0,0.94,0c1.83,0,3.66-0.01,5.49,0c0.99,0.01,1.66,0.67,1.71,1.64
		c0.05,0.94-0.56,1.72-1.43,1.85c-0.13,0.02-0.26,0.02-0.39,0.02c-2.61,0-5.21,0-7.82,0c-0.54,0-1.02-0.16-1.39-0.6
		c-0.33-0.39-0.42-0.87-0.42-1.39c0.01-1.33,0-2.66,0-3.99c0-0.3,0-0.6,0-1.03c-0.32,0-0.6,0-0.87,0c-1.83,0-3.66,0.01-5.49,0
		c-1.13-0.01-1.85-0.81-1.77-1.92c0.05-0.81,0.6-1.45,1.35-1.57c0.03,0,0.05-0.01,0.08-0.01c2.84,0,5.67-0.02,8.51,0.01
		c0.76,0.01,1.29,0.57,1.44,1.37c0.05,0.24,0.05,0.49,0.05,0.74c0,1.3,0,2.6,0,3.9C611.29,316.73,611.29,317,611.29,317.42z"/>
	<path d="M609.65,299.8c2.2,0,4.3,0,6.45,0c0.02-0.28,0.04-0.52,0.04-0.76c0-1.3,0-2.6,0-3.9c0-0.22-0.01-0.44,0.02-0.66
		c0.1-0.95,0.82-1.64,1.67-1.62c0.85,0.02,1.53,0.74,1.6,1.7c0.01,0.11,0.01,0.22,0.01,0.33c0,2.16-0.03,4.32,0.01,6.48
		c0.02,1.13-0.58,2.07-1.92,2.05c-0.75-0.01-1.5,0-2.24,0c-2.22,0-4.44,0-6.65,0c-0.28,0-0.57,0-0.85-0.05
		c-0.86-0.15-1.4-0.77-1.41-1.7c-0.02-2.19-0.02-4.38,0-6.56c0.01-0.99,0.77-1.75,1.64-1.73c0.88,0.01,1.59,0.77,1.62,1.77
		c0.03,1.22,0.01,2.44,0.01,3.66C609.65,299.1,609.65,299.4,609.65,299.8z"/>
	<path d="M595.84,288.74c-0.38,0-0.65,0-0.93,0c-2.99,0-5.98,0-8.97,0c-0.26,0-0.52,0.01-0.77-0.03c-0.77-0.1-1.33-0.73-1.4-1.53
		c-0.07-0.88,0.35-1.6,1.12-1.85c0.24-0.08,0.5-0.11,0.76-0.11c3.87-0.01,7.73-0.01,11.6,0c1.19,0,1.86,0.69,1.87,1.92
		c0.01,3.32,0.01,6.64,0,9.96c0,1.11-0.64,1.85-1.56,1.89c-0.92,0.04-1.64-0.65-1.71-1.64c-0.01-0.22-0.01-0.44-0.01-0.66
		c0-2.3,0-4.59,0-6.89C595.84,289.5,595.84,289.2,595.84,288.74z"/>
	<path d="M586.59,325.24c0-0.41,0-0.71,0-1.01c0-3.13,0-6.25,0-9.38c0-0.33,0.01-0.67,0.09-0.98c0.21-0.83,0.89-1.32,1.69-1.26
		c0.76,0.05,1.34,0.61,1.48,1.44c0.05,0.27,0.05,0.55,0.05,0.83c0,3.9,0,7.8,0,11.7c0,0.08,0,0.17,0,0.25
		c-0.04,1.33-0.63,1.98-1.87,1.99c-2.01,0.01-4.02,0.01-6.03,0c-0.31,0-0.62,0.01-0.93-0.03c-0.75-0.1-1.32-0.73-1.41-1.53
		c-0.09-0.77,0.36-1.57,1.07-1.82c0.29-0.1,0.6-0.13,0.91-0.14c1.37-0.01,2.73,0,4.1-0.01
		C585.99,325.27,586.25,325.25,586.59,325.24z"/>
	<path d="M562.27,339.62c-0.33-0.02-0.58-0.04-0.84-0.04c-1.29,0-2.58,0.01-3.87,0c-1.2-0.01-1.8-0.66-1.81-1.95
		c-0.01-1.22-0.02-2.44,0.01-3.65c0.02-0.87,0.58-1.5,1.38-1.64c0.74-0.13,1.47,0.29,1.74,1.05c0.09,0.25,0.12,0.54,0.13,0.81
		c0.02,0.55,0.02,1.11,0.03,1.66c0,0.02,0.02,0.05,0.05,0.15c0.19,0.02,0.41,0.05,0.63,0.05c1.29,0.01,2.58,0,3.87,0
		c1.34,0.01,1.96,0.64,1.96,2.07c0.01,2.93,0.01,5.87,0,8.8c0,0.3-0.02,0.62-0.11,0.9c-0.22,0.71-0.95,1.21-1.63,1.15
		c-0.77-0.07-1.41-0.7-1.52-1.52c-0.03-0.24-0.02-0.5-0.02-0.75c0-2.05,0-4.1,0-6.15C562.27,340.27,562.27,339.97,562.27,339.62z"/>
	<path d="M590.01,277.06c0-0.41,0-0.71,0-1.01c0-4.13,0-8.25,0-12.38c0-0.36,0.01-0.73,0.1-1.07c0.18-0.78,0.89-1.33,1.6-1.31
		c0.73,0.02,1.38,0.59,1.55,1.38c0.06,0.27,0.07,0.55,0.07,0.82c0,4.99,0,9.97,0,14.96c0,0.08,0,0.17,0,0.25
		c-0.04,1.18-0.65,1.86-1.74,1.89c-1.03,0.03-2.06,0-3.1,0.01c-1.16,0.01-1.72-0.95-1.73-1.73c-0.02-1,0.71-1.76,1.75-1.81
		C588.97,277.05,589.43,277.06,590.01,277.06z"/>
	<path d="M577.68,333.03c2.89,0,5.77,0,8.66,0.01c0.33,0,0.68,0.01,0.99,0.12c0.68,0.25,1.07,1,1,1.78
		c-0.07,0.8-0.62,1.43-1.38,1.57c-0.23,0.04-0.46,0.03-0.69,0.03c-5.75,0-11.49,0-17.24,0c-0.33,0-0.68-0.02-0.99-0.13
		c-0.76-0.27-1.2-1.07-1.08-1.88c0.12-0.83,0.73-1.43,1.53-1.48c0.21-0.01,0.41-0.01,0.62-0.01
		C571.95,333.03,574.81,333.03,577.68,333.03z"/>
	<path d="M548.33,318.21c0-0.4,0-0.7,0-0.99c0-1.47-0.01-2.93,0.01-4.4c0.01-0.87,0.58-1.56,1.33-1.69
		c0.78-0.14,1.53,0.29,1.81,1.07c0.08,0.23,0.12,0.48,0.12,0.73c0.01,2.32,0.01,4.65,0,6.97c-0.01,1.03-0.61,1.71-1.55,1.83
		c-0.18,0.02-0.36,0.01-0.54,0.01c-3.2,0-6.39,0-9.59-0.01c-0.33,0-0.67-0.03-0.99-0.13c-0.77-0.25-1.19-1-1.11-1.86
		c0.08-0.83,0.68-1.45,1.49-1.52c0.23-0.02,0.46-0.01,0.7-0.01c2.47,0,4.95,0,7.42,0C547.69,318.21,547.97,318.21,548.33,318.21z"/>
	<path d="M534.55,314.78c0,1.54,0,2.95,0,4.36c0,0.3,0.01,0.61-0.02,0.91c-0.09,0.99-0.83,1.72-1.7,1.68
		c-0.85-0.04-1.54-0.77-1.56-1.73c-0.03-1.38-0.01-2.77-0.01-4.15c0-0.94-0.02-1.88,0.01-2.82c0.03-1.07,0.67-1.74,1.68-1.74
		c3.5-0.01,7.01-0.01,10.51,0c0.91,0,1.55,0.61,1.67,1.5c0.11,0.83-0.32,1.62-1.07,1.89c-0.26,0.09-0.56,0.1-0.84,0.1
		c-2.58,0.01-5.15,0-7.73,0C535.21,314.78,534.93,314.78,534.55,314.78z"/>
	<path d="M574.51,265.94c-1.05,0-1.97,0.01-2.9-0.01c-0.3-0.01-0.63-0.04-0.9-0.17c-0.69-0.32-1.04-1.12-0.89-1.92
		c0.16-0.81,0.78-1.38,1.6-1.41c0.9-0.03,1.8-0.01,2.71-0.01c0.64,0,1.29-0.01,1.93,0c1.01,0.03,1.65,0.65,1.72,1.73
		c0.05,0.76,0.01,1.54,0.01,2.4c0.38,0,0.66,0,0.94,0c1.83,0,3.66-0.01,5.49,0c1.04,0.01,1.74,0.76,1.72,1.79
		c-0.02,0.88-0.6,1.58-1.42,1.69c-0.18,0.02-0.36,0.02-0.54,0.02c-2.5,0-5,0-7.5,0c-0.44,0-0.88-0.01-1.26-0.31
		c-0.49-0.39-0.73-0.91-0.73-1.57C574.52,267.49,574.51,266.78,574.51,265.94z"/>
	<path d="M571.27,314.34c0,0.4,0,0.7,0,0.99c0,1.55,0.01,3.1-0.01,4.65c-0.01,1.06-0.65,1.76-1.56,1.79
		c-0.95,0.03-1.68-0.67-1.71-1.73c-0.03-1.13-0.01-2.27-0.01-3.4c0-0.72,0-1.44,0-2.22c-0.23-0.03-0.42-0.09-0.61-0.09
		c-0.8-0.01-1.6-0.02-2.4,0c-1.05,0.02-1.7-0.84-1.72-1.73c-0.02-0.96,0.69-1.72,1.68-1.8c0.15-0.01,0.31-0.01,0.46-0.01
		c2.84,0,5.67-0.01,8.51,0.01c0.36,0,0.73,0.04,1.06,0.16c0.71,0.26,1.14,1.07,1.05,1.84c-0.1,0.8-0.67,1.45-1.43,1.5
		c-0.8,0.06-1.6,0.03-2.4,0.04C571.9,314.34,571.63,314.34,571.27,314.34z"/>
	<path d="M596.99,317.42c1.47,0,2.81,0,4.15,0c0.41,0,0.83-0.02,1.24,0.01c0.86,0.05,1.5,0.74,1.54,1.64
		c0.04,0.94-0.57,1.72-1.44,1.84c-0.18,0.02-0.36,0.02-0.54,0.02c-2.09,0-4.18-0.04-6.26,0.02c-1.38,0.04-2.02-1-2-2.15
		c0.05-2.93,0.01-5.87,0.02-8.8c0-1.04,0.46-1.7,1.28-1.91c0.94-0.24,1.85,0.41,1.98,1.44c0.04,0.27,0.03,0.55,0.03,0.83
		c0,2.02,0,4.04,0,6.06C596.99,316.71,596.99,317.01,596.99,317.42z"/>
	<path d="M591.08,340.37c0-1.17-0.01-2.22,0.01-3.27c0.01-0.35,0.04-0.73,0.15-1.06c0.24-0.72,0.97-1.19,1.65-1.11
		c0.72,0.08,1.3,0.64,1.46,1.4c0.01,0.05,0.03,0.11,0.03,0.16c0,1.94,0.05,3.88-0.01,5.81c-0.03,0.95-0.7,1.52-1.6,1.58
		c-0.18,0.01-0.36,0.01-0.54,0.01c-2.84,0-5.67,0-8.51,0c-0.15,0-0.31,0-0.46,0c-1-0.04-1.7-0.77-1.69-1.76
		c0.01-0.99,0.7-1.74,1.7-1.75c2.29-0.02,4.59-0.01,6.89-0.01C590.41,340.37,590.69,340.37,591.08,340.37z"/>
	<path d="M611.24,289.53c-0.4,0-0.68,0-0.95,0c-2.35,0-4.69,0-7.04-0.01c-0.3,0-0.63-0.02-0.91-0.13c-0.71-0.27-1.13-1.07-1.03-1.85
		c0.1-0.78,0.7-1.42,1.44-1.51c0.18-0.02,0.36-0.01,0.54-0.01c3.09,0,6.19,0.04,9.28-0.02c1.21-0.02,2.05,0.82,2,2.14
		c-0.05,1.24,0.01,2.49-0.02,3.74c-0.03,1.25-0.93,2.05-1.99,1.81c-0.64-0.15-1.06-0.56-1.22-1.23c-0.08-0.32-0.09-0.66-0.09-0.99
		C611.23,290.87,611.24,290.26,611.24,289.53z"/>
	<path d="M583.52,277.07c0,0.9,0.01,1.65-0.01,2.39c-0.01,0.33-0.04,0.67-0.15,0.97c-0.26,0.71-1.02,1.15-1.68,1.04
		c-0.78-0.13-1.37-0.76-1.44-1.61c-0.04-0.49-0.01-0.99-0.02-1.49c0-0.39,0-0.77,0-1.25c-0.31-0.01-0.58-0.04-0.86-0.04
		c-1.6,0-3.19-0.03-4.79,0.01c-0.8,0.02-1.7-0.67-1.68-1.76c0.02-0.9,0.6-1.62,1.46-1.75c0.2-0.03,0.41-0.02,0.62-0.02
		c2.96,0,5.92,0,8.89,0c0.33,0,0.68,0.02,0.99,0.13c0.77,0.26,1.19,1.01,1.1,1.86c-0.08,0.82-0.7,1.45-1.5,1.51
		C584.18,277.09,583.9,277.07,583.52,277.07z"/>
	<path d="M574.31,283.92c0,0.45,0,0.8,0,1.16c0,0.41,0.01,0.83,0,1.24c-0.04,1.06-0.74,1.83-1.64,1.83c-0.87,0-1.56-0.71-1.65-1.74
		c-0.04-0.49-0.02-0.99-0.02-1.49c0-0.3,0-0.6,0-1c-0.38,0-0.69,0-0.99,0c-0.57-0.01-1.14,0.02-1.7-0.04
		c-0.72-0.08-1.26-0.71-1.36-1.48c-0.1-0.75,0.3-1.54,0.95-1.82c0.28-0.12,0.6-0.18,0.9-0.18c2.58-0.01,5.15-0.01,7.73,0
		c0.25,0,0.52,0.04,0.76,0.12c0.75,0.27,1.19,1.05,1.09,1.88c-0.09,0.79-0.67,1.42-1.44,1.48c-0.56,0.05-1.13,0.02-1.7,0.03
		C574.95,283.93,574.67,283.92,574.31,283.92z"/>
	<path d="M601.29,301.63c0-0.53,0-0.94,0-1.35c0-1-0.02-1.99,0.01-2.99c0.02-1.05,0.74-1.8,1.65-1.8c0.9,0.01,1.6,0.71,1.61,1.74
		c0.02,2.07,0.03,4.15,0,6.22c-0.01,0.98-0.67,1.66-1.58,1.67c-1.85,0.02-3.71,0.03-5.56,0c-0.9-0.01-1.55-0.76-1.57-1.69
		c-0.02-0.98,0.62-1.75,1.56-1.79c0.98-0.04,1.96-0.02,2.93-0.02C600.62,301.62,600.9,301.63,601.29,301.63z"/>
	<path d="M580.99,314.78c-0.59,0-1.08,0.01-1.57,0c-0.93-0.03-1.63-0.77-1.64-1.72c-0.01-0.98,0.7-1.75,1.67-1.77
		c1.06-0.02,2.11-0.02,3.17,0c1,0.01,1.64,0.66,1.72,1.72c0.01,0.14,0.01,0.28,0.01,0.41c0,2.07,0,4.15,0,6.22
		c0,0.27-0.02,0.56-0.08,0.82c-0.19,0.82-0.8,1.32-1.57,1.32c-0.77,0-1.39-0.49-1.59-1.3c-0.07-0.29-0.08-0.6-0.09-0.9
		c-0.01-1.3,0-2.6-0.01-3.9C581.03,315.41,581.01,315.14,580.99,314.78z"/>
	<path d="M577.78,289.35c0-0.95-0.02-1.78,0.01-2.61c0.04-1.06,0.74-1.77,1.68-1.75c0.91,0.02,1.55,0.71,1.6,1.76
		c0.03,0.74,0.01,1.49,0.01,2.24c0,0.66,0.01,1.33,0,1.99c-0.03,1.19-0.63,1.86-1.72,1.88c-1.31,0.03-2.62,0.03-3.94,0
		c-1.03-0.02-1.69-0.72-1.7-1.73c-0.01-1.02,0.7-1.76,1.74-1.78C576.2,289.34,576.94,289.35,577.78,289.35z"/>
	<path d="M535.29,303.42c-0.63,0-1.22,0.01-1.81,0c-0.33-0.01-0.67-0.02-1-0.1c-0.72-0.18-1.2-0.83-1.22-1.61
		c-0.03-0.79,0.39-1.48,1.09-1.72c0.26-0.09,0.55-0.13,0.83-0.13c1.16-0.01,2.32-0.02,3.48,0c1.28,0.01,1.92,0.67,1.94,2.02
		c0.02,1.3,0.01,2.6,0,3.9c0,0.33-0.05,0.67-0.16,0.97c-0.28,0.74-1.06,1.16-1.77,1.01c-0.73-0.15-1.29-0.8-1.34-1.61
		c-0.04-0.61-0.01-1.22-0.01-1.83C535.33,304.05,535.31,303.78,535.29,303.42z"/>
	<path d="M567.24,299.85c0.42,0,0.8-0.02,1.18,0.01c0.33,0.02,0.68,0.04,0.99,0.15c0.65,0.23,1.08,0.94,1.06,1.67
		c-0.02,0.77-0.51,1.44-1.21,1.64c-0.22,0.06-0.46,0.09-0.69,0.1c-0.93,0.01-1.86,0.02-2.78,0c-1.24-0.03-1.85-0.68-1.88-2.01
		c-0.03-1.3-0.02-2.6,0-3.9c0-0.33,0.05-0.67,0.17-0.97c0.28-0.74,1.04-1.16,1.77-1.02c0.72,0.14,1.3,0.79,1.35,1.61
		c0.04,0.63,0.01,1.27,0.02,1.91C567.21,299.27,567.23,299.51,567.24,299.85z"/>
	<path d="M549.7,287.79c1.08,0,2.16-0.01,3.24,0.01c0.3,0.01,0.63,0.04,0.9,0.17c0.62,0.29,0.94,0.86,0.94,1.58
		c0,0.68-0.31,1.23-0.89,1.54c-0.25,0.13-0.54,0.22-0.81,0.22c-2.27,0.02-4.53,0.03-6.8,0c-0.99-0.01-1.66-0.71-1.71-1.65
		c-0.05-1.03,0.58-1.81,1.57-1.85c0.87-0.04,1.75-0.01,2.63-0.01C549.08,287.79,549.39,287.79,549.7,287.79z"/>
	<path d="M567.2,265.65c0,1.16,0.02,2.33-0.01,3.49c-0.02,1.11-0.76,1.85-1.73,1.8c-0.77-0.04-1.37-0.58-1.52-1.4
		c-0.05-0.3-0.06-0.61-0.06-0.91c-0.01-1.97,0-3.93,0-5.9c0-0.25,0.01-0.5,0.04-0.74c0.13-0.94,0.78-1.57,1.62-1.56
		c0.86,0,1.58,0.7,1.63,1.65c0.05,0.77,0.01,1.55,0.02,2.32C567.21,264.82,567.21,265.24,567.2,265.65
		C567.2,265.65,567.2,265.65,567.2,265.65z"/>
	<path d="M557.36,265.66c0-1.02,0-2.05,0-3.07c0-0.22,0-0.45,0.04-0.66c0.15-0.89,0.81-1.49,1.61-1.49c0.81,0,1.46,0.58,1.62,1.48
		c0.04,0.22,0.05,0.44,0.05,0.66c0,2.08,0.01,4.15,0,6.23c0,0.3-0.02,0.61-0.1,0.9c-0.21,0.79-0.86,1.28-1.63,1.25
		c-0.73-0.03-1.33-0.53-1.51-1.31c-0.06-0.26-0.07-0.55-0.08-0.82C557.36,267.76,557.36,266.71,557.36,265.66z"/>
	<path d="M589.86,304.65c0-0.97-0.02-1.94,0.01-2.9c0.02-0.75,0.34-1.33,1-1.63c0.6-0.28,1.16-0.18,1.67,0.24
		c0.44,0.36,0.63,0.88,0.63,1.45c0.01,1.91,0.03,3.82-0.01,5.73c-0.02,1.13-0.75,1.83-1.73,1.8c-0.95-0.03-1.54-0.73-1.58-1.86
		c0-0.03,0-0.06,0-0.08C589.86,306.48,589.86,305.56,589.86,304.65C589.86,304.65,589.86,304.65,589.86,304.65z"/>
	<path d="M531.26,291.51c0-0.97,0.02-1.94-0.01-2.91c-0.03-1.15,0.79-1.88,1.66-1.89c0.9,0,1.61,0.79,1.62,1.85
		c0.02,1.99,0.02,3.98,0,5.98c-0.01,0.85-0.45,1.5-1.1,1.74c-0.65,0.24-1.39,0.02-1.82-0.55c-0.28-0.36-0.37-0.78-0.36-1.24
		C531.27,293.5,531.26,292.5,531.26,291.51z"/>
	<path d="M578.37,320.84c0,0.94,0.02,1.88-0.01,2.82c-0.03,0.8-0.57,1.44-1.25,1.59c-0.8,0.17-1.53-0.2-1.86-0.97
		c-0.08-0.2-0.14-0.42-0.14-0.64c-0.01-1.88-0.01-3.76-0.01-5.64c0-0.57,0.24-1.02,0.65-1.35c0.48-0.38,1.01-0.54,1.59-0.26
		c0.62,0.3,0.99,0.8,1.01,1.53C578.39,318.9,578.37,319.87,578.37,320.84C578.37,320.84,578.37,320.84,578.37,320.84z"/>
	<path d="M618.62,309.45c0,0.94,0.03,1.88-0.01,2.82c-0.03,0.78-0.54,1.39-1.26,1.6c-0.63,0.18-1.39-0.13-1.74-0.77
		c-0.16-0.3-0.25-0.67-0.26-1.02c-0.03-1.72-0.03-3.43-0.01-5.15c0.01-1.06,0.72-1.81,1.64-1.8c0.92,0.01,1.59,0.77,1.63,1.83
		c0,0.03,0,0.06,0,0.08C618.62,307.85,618.62,308.65,618.62,309.45C618.62,309.45,618.62,309.45,618.62,309.45z"/>
	<path d="M565,319.98c0,0.58,0.02,1.16,0,1.74c-0.04,1.07-0.73,1.83-1.63,1.84c-0.9,0.01-1.63-0.73-1.66-1.81
		c-0.04-1.22-0.06-2.44,0-3.65c0.07-1.51,1.4-2.31,2.51-1.57c0.52,0.35,0.77,0.88,0.78,1.53C565.01,318.7,565,319.34,565,319.98z"/>
	<path d="M568.81,290.2c0,0.64,0.04,1.27-0.01,1.9c-0.08,0.99-0.77,1.65-1.63,1.65c-0.89,0-1.6-0.73-1.63-1.74
		c-0.03-1.19-0.03-2.38,0-3.57c0.03-0.99,0.78-1.74,1.64-1.74c0.84,0.01,1.54,0.69,1.62,1.67
		C568.85,288.98,568.81,289.59,568.81,290.2C568.81,290.2,568.81,290.2,568.81,290.2z"/>
	<path class="st1" d="M534.6,263.11c5.42,0,10.77,0,16.17,0c0,5.8,0,11.57,0,17.4c-5.38,0-10.75,0-16.17,0
		C534.6,274.72,534.6,268.95,534.6,263.11z M542.74,265.71c-1.32,0-2.63-0.01-3.95,0c-1.16,0.01-1.81,0.62-1.82,1.86
		c-0.03,2.85-0.03,5.71,0,8.56c0.01,1.18,0.67,1.84,1.77,1.85c2.63,0.02,5.26,0.02,7.89,0c1.13-0.01,1.78-0.71,1.79-1.92
		c0.02-2.82,0.01-5.65,0-8.48c0-1.27-0.9-1.93-1.83-1.88C545.32,265.75,544.03,265.71,542.74,265.71z"/>
	<path class="st1" d="M599.92,263.11c5.42,0,10.78,0,16.18,0c0,5.81,0,11.57,0,17.4c-5.39,0-10.76,0-16.18,0
		C599.92,274.72,599.92,268.95,599.92,263.11z M613.74,271.87C613.74,271.87,613.74,271.87,613.74,271.87c0-1.41,0-2.83,0-4.24
		c0-1.35-0.91-1.96-1.85-1.94c-2.58,0.05-5.16,0.05-7.74,0c-1.12-0.02-1.93,0.77-1.9,2.07c0.03,1.13,0,2.27,0.01,3.41
		c0,1.61-0.01,3.21,0.01,4.82c0.01,1.24,0.63,1.98,1.73,1.99c2.68,0.03,5.37,0.03,8.05,0c1.01-0.01,1.6-0.69,1.69-1.78
		c0.02-0.22,0.01-0.44,0.01-0.66C613.74,274.31,613.74,273.09,613.74,271.87z"/>
	<path class="st1" d="M616.12,328.02c0,5.8,0,11.56,0,17.31c-0.58,0.17-15.27,0.21-16.2,0.04c0-5.77,0-11.54,0-17.32
		C600.47,327.9,615.11,327.86,616.12,328.02z M607.98,330.56c-1.29,0-2.58-0.01-3.86,0c-1.18,0.01-1.84,0.66-1.85,1.92
		c-0.02,2.82-0.02,5.64,0,8.46c0.01,1.21,0.69,1.89,1.81,1.9c2.63,0.01,5.25,0.01,7.88,0c1.08-0.01,1.75-0.68,1.77-1.85
		c0.03-2.85,0.03-5.7,0-8.55c-0.01-1.23-0.67-1.87-1.8-1.88C610.61,330.55,609.3,330.56,607.98,330.56z"/>
	<path class="st1" d="M534.65,327.97c5.35,0,10.7,0,16.05,0c0.16,0.64,0.18,16.58,0.02,17.45c-5.35,0-10.7,0-16.05,0
		C534.52,344.77,534.5,328.85,534.65,327.97z M542.69,342.85c1.26,0,2.52,0,3.79,0c1.3-0.01,1.95-0.68,1.96-2.08
		c0.01-2.71-0.01-5.42,0.01-8.13c0.01-1.43-0.88-2.12-1.96-2.09c-2.52,0.06-5.05,0.02-7.57,0.02c-1.32,0-1.94,0.64-1.95,2.07
		c-0.01,2.71-0.01,5.42,0,8.13c0.01,1.43,0.63,2.08,1.95,2.09C540.17,342.85,541.43,342.85,542.69,342.85z"/>
	<path d="M542.74,265.71c1.29,0,2.58,0.04,3.87-0.01c0.92-0.04,1.82,0.61,1.83,1.88c0.01,2.83,0.02,5.65,0,8.48
		c-0.01,1.22-0.67,1.91-1.79,1.92c-2.63,0.02-5.26,0.02-7.89,0c-1.1-0.01-1.76-0.67-1.77-1.85c-0.03-2.85-0.03-5.71,0-8.56
		c0.01-1.23,0.66-1.85,1.82-1.86C540.11,265.7,541.42,265.71,542.74,265.71z M540.31,269.25c0,1.75,0,3.42,0,5.08
		c0.9,0.18,4.22,0.14,4.75-0.04c0-1.68,0-3.35,0-5.04C543.46,269.25,541.93,269.25,540.31,269.25z"/>
	<path d="M613.74,271.87c0,1.22,0,2.44,0,3.66c0,0.22,0.01,0.44-0.01,0.66c-0.08,1.09-0.68,1.77-1.69,1.78
		c-2.68,0.03-5.37,0.03-8.05,0c-1.1-0.01-1.72-0.74-1.73-1.99c-0.02-1.61-0.01-3.21-0.01-4.82c0-1.14,0.02-2.27-0.01-3.41
		c-0.03-1.3,0.78-2.09,1.9-2.07c2.58,0.06,5.16,0.05,7.74,0c0.94-0.02,1.85,0.59,1.85,1.94
		C613.74,269.05,613.74,270.46,613.74,271.87C613.74,271.87,613.74,271.87,613.74,271.87z M605.62,274.43
		c1.64,0.02,3.19,0.02,4.76,0.01c0-1.8,0-3.47,0-5.17c-1.6,0-3.16,0-4.76,0C605.62,270.99,605.62,272.66,605.62,274.43z"/>
	<path d="M607.98,330.56c1.31,0,2.63-0.01,3.94,0c1.13,0.01,1.79,0.65,1.8,1.88c0.03,2.85,0.03,5.7,0,8.55
		c-0.01,1.17-0.69,1.85-1.77,1.85c-2.63,0.01-5.25,0.01-7.88,0c-1.12-0.01-1.8-0.69-1.81-1.9c-0.03-2.82-0.02-5.64,0-8.46
		c0.01-1.26,0.67-1.91,1.85-1.92C605.41,330.55,606.7,330.56,607.98,330.56z M610.32,339.3c0.17-0.88,0.15-4.6-0.03-5.19
		c-1.45-0.13-4.13-0.08-4.67,0.09c-0.13,1.53-0.08,4.52,0.1,5.1C607.26,339.3,608.79,339.3,610.32,339.3z"/>
	<path d="M542.69,342.85c-1.26,0-2.52,0-3.79,0c-1.31-0.01-1.94-0.66-1.95-2.09c-0.01-2.71-0.02-5.42,0-8.13
		c0.01-1.43,0.63-2.06,1.95-2.07c2.52,0,5.05,0.04,7.57-0.02c1.08-0.03,1.97,0.67,1.96,2.09c-0.02,2.71,0,5.42-0.01,8.13
		c-0.01,1.4-0.65,2.08-1.96,2.08C545.22,342.85,543.95,342.85,542.69,342.85z M545.08,334.11c-1.63,0-3.18,0-4.76,0
		c0,1.75,0,3.45,0,5.17c1.61,0,3.17,0,4.76,0C545.08,337.55,545.08,335.87,545.08,334.11z"/>
	<path class="st1" d="M540.31,269.25c1.61,0,3.15,0,4.75,0c0,1.7,0,3.37,0,5.04c-0.52,0.18-3.84,0.22-4.75,0.04
		C540.31,272.68,540.31,271,540.31,269.25z"/>
	<path class="st1" d="M605.62,274.43c0-1.77,0-3.44,0-5.16c1.6,0,3.15,0,4.76,0c0,1.7,0,3.37,0,5.17
		C608.81,274.45,607.26,274.45,605.62,274.43z"/>
	<path class="st1" d="M610.32,339.3c-1.53,0-3.06,0-4.6,0c-0.18-0.58-0.23-3.58-0.1-5.1c0.53-0.17,3.22-0.23,4.67-0.09
		C610.47,334.7,610.49,338.42,610.32,339.3z"/>
	<path class="st1" d="M545.08,334.11c0,1.76,0,3.44,0,5.17c-1.59,0-3.15,0-4.76,0c0-1.72,0-3.42,0-5.17
		C541.9,334.11,543.45,334.11,545.08,334.11z"/>
</g>
</svg>
